<?xml version="1.0" encoding="UTF-8" standalone="no"?>
<!-- Created with Inkscape (http://www.inkscape.org/) -->

<svg
   width="177.73035mm"
   height="82.919807mm"
   viewBox="0 0 177.73035 82.919808"
   version="1.1"
   id="svg1"
   xml:space="preserve"
   xmlns="http://www.w3.org/2000/svg"
   xmlns:svg="http://www.w3.org/2000/svg"><defs
     id="defs1" /><g
     id="layer1"
     transform="translate(-15.785,-153.10526)"><path
       d="m 187.97832,229.03056 c 2.73217,0 0.80534,-14.64274 -4.66422,-20.58759 9.02491,-2.824 11.28659,-13.67061 9.76314,-21.94179 0.46875,-9.10444 -12.83673,-7.85019 -14.99189,-12.22296 -0.13983,-11.87432 -14.95321,-18.84725 -24.94157,-13.5143 -4.27246,1.31513 -7.9724,8.01396 -9.6094,0.70598 -6.59219,-9.951 -22.03404,-10.5295 -30.3031,-2.35944 -4.02484,2.35189 -13.05988,9.4043 -16.317636,1.80714 -7.726781,-6.55305 -12.263626,-3.70281 -21.347196,-1.10405 -7.473389,1.56178 -7.161234,13.73468 -14.18627,13.28901 -9.640962,0.41925 -21.293725,2.1352 -26.715123,11.14242 -4.804114,5.9962 2.744538,14.93735 -4.730031,18.73686 -6.082554,6.00437 -11.696448,15.33968 -7.186204,23.86129 3.584511,7.6605 13.120753,4.2914 19.741359,4.84465 46.313697,-0.69978 99.164931,-2.65722 145.488141,-2.65722 z"
       style="fill:#249ea6;stroke-width:0"
       id="path1" /><path
       style="fill:#00c6c6;fill-opacity:1;stroke-width:0"
       d="m 27.897937,224.87349 c 0,0 -1.404299,-15.22911 -0.926176,-24.25858 0.464625,-8.77458 -4.214651,-5.65657 -2.634325,-21.51799 0.834831,-8.37903 7.929617,-17.40991 16.093914,-19.47132 8.461177,-2.13636 24.259426,9.84278 24.259426,9.84278 0,0 6.236442,-14.25165 20.332878,-13.96389 21.583846,0.44058 25.174066,12.61255 25.174066,12.61255 0,0 13.8863,-6.29131 27.1105,-8.78374 53.07887,-10.00404 34.71484,7.95732 45.92426,16.00622 3.62383,2.60208 -2.04681,12.65445 2.86356,16.37572 14.03744,10.63811 -6.76653,18.7439 -6.76653,18.7439 0,0 2.81565,1.15541 2.23709,16.97537 z"
       id="path2-6" /><path
       style="fill:#54d2da;fill-opacity:1;stroke-width:0"
       d="m 21.23254,236.02507 c 0,0 -14.1745272,-18.48752 3.20552,-39.45417 10.508319,-12.67685 22.806713,-4.73272 22.806713,-4.73272 0,0 2.06931,-17.37727 16.055869,-22.51429 21.41559,-7.86556 28.443192,3.53537 28.443192,3.53537 0,0 10.405636,-18.93646 24.224796,-19.68792 22.85947,-1.24307 24.72043,15.46474 24.72043,15.46474 0,0 16.29495,-11.97246 27.33641,-3.62463 14.36757,10.86255 4.03499,25.6515 4.03499,25.6515 0,0 11.63958,-7.30036 17.87593,8.19291 6.21709,15.44543 1.45977,32.06294 1.45977,32.06294 z"
       id="path2-7" /></g></svg>
