<?xml version="1.0" encoding="UTF-8" standalone="no"?>
<!-- Created with Inkscape (http://www.inkscape.org/) -->

<svg
   width="177.73035mm"
   height="82.919807mm"
   viewBox="0 0 177.73035 82.919808"
   version="1.1"
   id="svg1"
   xml:space="preserve"
   sodipodi:docname="hero-cloud.svg"
   inkscape:version="1.3 (0e150ed6c4, 2023-07-21)"
   xmlns:inkscape="http://www.inkscape.org/namespaces/inkscape"
   xmlns:sodipodi="http://sodipodi.sourceforge.net/DTD/sodipodi-0.dtd"
   xmlns="http://www.w3.org/2000/svg"
   xmlns:svg="http://www.w3.org/2000/svg"><sodipodi:namedview
     id="namedview1"
     pagecolor="#ffffff"
     bordercolor="#000000"
     borderopacity="0.25"
     inkscape:showpageshadow="2"
     inkscape:pageopacity="0.0"
     inkscape:pagecheckerboard="0"
     inkscape:deskcolor="#d1d1d1"
     inkscape:document-units="mm"
     inkscape:zoom="0.42725071"
     inkscape:cx="93.621846"
     inkscape:cy="-129.90031"
     inkscape:window-width="1366"
     inkscape:window-height="705"
     inkscape:window-x="-8"
     inkscape:window-y="-8"
     inkscape:window-maximized="1"
     inkscape:current-layer="layer1" /><defs
     id="defs1" /><g
     id="layer1"
     transform="translate(-15.785,-153.10526)"><path
       style="fill:#00c6c6;fill-opacity:1;stroke-width:0"
       d="m 21.290392,233.05739 c 0,0 -14.347759,-18.48752 3.244696,-39.45417 10.636743,-12.67685 23.085435,-4.73272 23.085435,-4.73272 0,0 2.094599,-17.37727 16.252091,-22.51429 21.677316,-7.86556 28.790804,3.53537 28.790804,3.53537 0,0 10.313862,-15.43334 24.301912,-16.1848 23.13884,-1.24307 28.19724,5.72169 28.19724,5.72169 0,0 27.87922,-11.31562 39.05562,-2.96779 14.54317,10.86255 2.98959,30.13987 2.98959,30.13987 0,0 -0.15067,4.74161 1.34511,9.06869 5.44895,15.76302 4.36145,39.71311 4.36145,39.71311 z"
       id="path2-7-5"
       sodipodi:nodetypes="cscccscscscc" /><path
       style="fill:#00ffff;fill-opacity:1;stroke-width:0"
       d="m 188.72423,235.99643 c 0,0 14.17453,-18.48752 -3.20552,-39.45417 -10.50832,-12.67685 -22.80671,-4.73272 -22.80671,-4.73272 0,0 -2.06931,-17.37727 -16.05587,-22.51429 -21.41559,-7.86556 -28.44319,3.53537 -28.44319,3.53537 0,0 -10.40564,-18.93646 -24.224792,-19.68792 -22.859475,-1.24307 -25.649339,10.51058 -25.649339,10.51058 0,0 -22.79728,-12.90136 -33.83874,-4.55353 -14.36757,10.86255 -4.03499,24.7226 -4.03499,24.7226 0,0 -4.208346,-0.4884 -10.444696,15.00487 -6.21709,15.44543 -1.45977,32.06294 -1.45977,32.06294 z"
       id="path2-7-6"
       sodipodi:nodetypes="cscscscccscc" /><path
       style="fill:#54d2da;fill-opacity:1;stroke-width:0"
       d="m 20.61327,234.78654 c 0,0 -12.9359875,-18.17789 4.444059,-39.14454 10.508319,-12.67685 22.806713,-4.73272 22.806713,-4.73272 0,0 2.06931,-17.37727 16.055869,-22.51429 21.41559,-7.86556 28.443188,3.53537 28.443188,3.53537 0,0 10.186701,-17.40385 24.005861,-18.15531 22.85947,-1.24307 24.93937,13.93213 24.93937,13.93213 0,0 16.29495,-11.97246 27.33641,-3.62463 14.36757,10.86255 4.03499,25.6515 4.03499,25.6515 0,0 11.63958,-7.30036 17.87593,8.19291 6.21709,15.44543 1.45977,36.70746 1.45977,36.70746 z"
       id="path2-7"
       sodipodi:nodetypes="cscccscscscc" /></g></svg>
