<?xml version="1.0" encoding="UTF-8" standalone="no"?>
<!-- Created with Inkscape (http://www.inkscape.org/) -->

<svg
   width="12mm"
   height="12mm"
   viewBox="0 0 16.404282 16.436005"
   version="1.1"
   id="svg1"
   xml:space="preserve"
   xmlns="http://www.w3.org/2000/svg"
   xmlns:svg="http://www.w3.org/2000/svg"><defs
     id="defs1" /><g
     id="layer1"
     transform="translate(-145.76015,-160.99676)"><path
       style="fill:white;stroke-width:0.264583"
       d="m 149.44886,177.31283 c -1.51859,-0.20595 -2.5423,-0.78488 -3.22189,-1.82206 -0.40853,-0.62351 -0.4667,-1.40627 -0.4667,-6.28017 0,-8.3438 -0.13064,-8.21372 8.24882,-8.21372 5.28274,0 5.6457,0.0318 6.35,0.55682 1.66325,1.2398 1.80534,1.83113 1.80534,7.51297 0,7.89635 -0.28132,8.22087 -7.23894,8.35055 -2.27598,0.0424 -4.74046,-0.005 -5.47663,-0.10439 z m 7.54748,-4.34356 c 0.32567,-0.79287 1.06705,-5.43135 1.06705,-6.67603 0,-0.91025 -0.0499,-0.97557 -0.63354,-0.82909 -0.9007,0.22606 -8.71025,3.58713 -9.00069,3.87371 -0.14446,0.14254 0.0682,0.35633 0.52917,0.53198 1.76204,0.67142 2.00602,0.61949 4.3179,-0.91905 1.22224,-0.81339 2.29334,-1.40506 2.38023,-1.31482 0.0869,0.0902 -0.52664,0.78873 -1.36338,1.55221 -0.83675,0.76348 -1.51778,1.55448 -1.51341,1.75779 0.009,0.40623 3.07267,2.61862 3.62653,2.61862 0.19009,0 0.45565,-0.26789 0.59014,-0.59532 z"
       id="path1" /></g></svg>
