<?xml version="1.0" encoding="UTF-8" standalone="no"?>
<!-- Created with Inkscape (http://www.inkscape.org/) -->

<svg
   width="16.52182mm"
   height="16.559143mm"
   viewBox="0 0 16.52182 16.559143"
   version="1.1"
   id="svg1"
   xml:space="preserve"
   xmlns="http://www.w3.org/2000/svg"
   xmlns:svg="http://www.w3.org/2000/svg"><defs
     id="defs1" /><g
     id="layer1"
     transform="translate(-75.497034,-165.39497)"><path
       d="m 79.303282,181.82744 c -1.517433,-0.20441 -2.541508,-0.78287 -3.221892,-1.81993 -0.397562,-0.60597 -0.479418,-1.48495 -0.552513,-5.93298 -0.07864,-4.78565 -0.04085,-5.32326 0.452706,-6.43902 0.438184,-0.99059 0.765326,-1.31773 1.755913,-1.75591 1.116452,-0.49386 1.65328,-0.5314 6.473964,-0.45271 5.856454,0.0956 6.148437,0.17976 7.278224,2.09784 0.480362,0.81553 0.529167,1.37424 0.529167,6.05776 0,4.63021 -0.05427,5.26792 -0.529167,6.21771 -0.874918,1.74985 -1.868092,2.06591 -6.732815,2.14264 -2.263305,0.0357 -4.71742,-0.0162 -5.453587,-0.1154 z m 4.910361,-6.01382 c 0,-1.13032 0.03849,-1.19678 0.595312,-1.02792 0.752209,0.22811 1.729727,1.11329 1.931512,1.74906 0.110668,0.34868 0.413038,0.48731 1.062881,0.48731 0.499516,0 0.908211,-0.0654 0.908211,-0.14543 0,-0.39866 -0.836427,-1.65984 -1.551926,-2.34001 l -0.805419,-0.76566 0.887588,-1.03694 c 0.488174,-0.57033 0.947899,-1.26758 1.021611,-1.54945 0.1132,-0.43288 -0.006,-0.51251 -0.767249,-0.51251 -0.495699,0 -0.901271,0.11492 -0.901271,0.25538 0,0.42084 -1.613534,2.12587 -2.011784,2.12587 -0.261497,0 -0.369466,-0.34793 -0.369466,-1.19062 0,-1.14653 -0.0294,-1.19063 -0.79375,-1.19063 h -0.79375 v 2.11667 c 0,1.29903 -0.107085,2.11667 -0.277217,2.11667 -0.805664,0 -2.097927,-2.31729 -2.102558,-3.77032 -0.0011,-0.35297 -0.222763,-0.46302 -0.932558,-0.46302 -1.03378,0 -1.021213,-0.10031 -0.329148,2.62745 0.503576,1.98483 2.540015,3.56375 4.76596,3.69521 0.37738,0.0223 0.463021,-0.19617 0.463021,-1.18111 z"
       style="fill:white;stroke-width:0.264583"
       id="path1-3" /></g></svg>
